# xmcd
#
# Track frame offsets:
#	150
#	21154
#	39716
#	62574
#	81841
#	102616
#	124576
#	142238
#	162001
#	180760
#	201381
#	219043
#	237183
#
# Disc length: 3565 seconds
# Revision: 0
# Processed by: cddbd v1.5.2PL0 Copyright (c) Steve Scherf et al.
# Submitted via: dBpowerAMP V12.0
#
DISCID=ae0deb0d
DTITLE=Anderson and Lardot - The Firing Line
DYEAR=2015
DGENRE=Blues
TTITLE0=The Firing Line
TTITLE1=Love Ain't Enough
TTITLE2=Nervous
TTITLE3=Toughen Up
TTITLE4=My Big Adventure
TTITLE5=When It's All Over
TTITLE6=Mr Fluffy
TTITLE7=Learning How To Love You
TTITLE8=Don't Know How
TTITLE9=Let You Go
TTITLE10=Whadayaknow
TTITLE11=Left Me Dead
TTITLE12=Drive Me Crazy - You Used Me (live)
EXTD=
EXTT0=
EXTT1=
EXTT2=
EXTT3=
EXTT4=
EXTT5=
EXTT6=
EXTT7=
EXTT8=
EXTT9=
EXTT10=
EXTT11=
EXTT12=
PLAYORDER=
